<?xml version="1.0" standalone="no"?>
<!DOCTYPE svg PUBLIC "-//W3C//DTD SVG 20010904//EN"
 "http://www.w3.org/TR/2001/REC-SVG-20010904/DTD/svg10.dtd">
<svg version="1.0" xmlns="http://www.w3.org/2000/svg"
 width="400.000000pt" height="400.000000pt" viewBox="0 0 400.000000 400.000000"
 preserveAspectRatio="xMidYMid meet">
<metadata>
Created by potrace 1.11, written by Peter Selinger 2001-2013
</metadata>
<g transform="translate(0.000000,400.000000) scale(0.100000,-0.100000)"
fill="#000000" stroke="none">
<path d="M0 2000 l0 -1800 2000 0 2000 0 0 1800 0 1800 -2000 0 -2000 0 0
-1800z m1711 691 c99 -38 171 -121 212 -244 29 -89 29 -285 0 -374 -58 -176
-178 -267 -353 -267 -101 0 -167 24 -233 84 -98 89 -137 196 -137 370 0 165
32 260 117 351 74 79 164 112 281 103 35 -3 86 -13 113 -23z m1821 3 l68 -16
0 -58 0 -58 -67 26 c-57 21 -86 26 -173 26 -90 1 -111 -2 -146 -21 -58 -31
-129 -114 -155 -181 -31 -81 -31 -215 0 -294 29 -75 97 -150 169 -185 50 -25
68 -28 152 -28 l95 0 3 123 3 122 -81 0 -80 0 0 50 0 50 145 0 145 0 0 -204 0
-203 -77 -16 c-167 -35 -257 -32 -378 14 -83 31 -192 139 -226 224 -21 53 -24
76 -24 195 0 131 1 137 32 202 65 138 187 228 338 252 48 7 184 -4 257 -20z
m-2972 -434 l0 -440 -65 0 -65 0 0 440 0 440 65 0 65 0 0 -440z m478 413 c-55
-61 -328 -382 -328 -387 0 -3 92 -107 205 -231 113 -124 205 -228 205 -230 0
-3 -33 -5 -73 -5 l-74 0 -201 222 c-111 121 -202 224 -202 227 0 3 81 102 181
219 l180 212 67 0 66 0 -26 -27z m1534 2 c123 -44 171 -180 108 -306 -21 -40
-83 -100 -129 -124 -17 -8 -31 -18 -31 -22 0 -3 65 -93 145 -200 80 -106 145
-195 145 -198 0 -3 -33 -5 -74 -5 l-74 0 -138 185 -139 185 -62 0 -63 0 0
-185 0 -185 -65 0 -65 0 0 441 0 442 198 -6 c147 -4 209 -9 244 -22z m-1207
-1175 c0 -29 -32 -41 -41 -16 -9 24 4 48 23 44 12 -2 18 -12 18 -28z m120 0
c0 -15 -6 -26 -16 -28 -19 -3 -31 21 -22 43 9 25 38 13 38 -15z m850 0 c0 -29
-32 -41 -41 -16 -9 24 4 48 23 44 12 -2 18 -12 18 -28z m-1125 -90 c0 -18 -7
-20 -55 -20 l-55 0 -2 -167 c-3 -160 -4 -168 -23 -168 -19 0 -20 8 -23 168
l-2 167 -55 0 c-48 0 -55 2 -55 20 0 19 7 20 135 20 128 0 135 -1 135 -20z
m110 -139 c5 -146 6 -154 29 -172 36 -29 101 -26 132 7 23 24 24 33 27 175 3
139 5 149 23 149 18 0 19 -8 19 -147 0 -129 -3 -152 -20 -180 -34 -57 -104
-76 -176 -48 -67 25 -78 53 -82 213 -4 144 -1 165 25 160 16 -3 19 -21 23
-157z m510 141 c67 -33 76 -112 19 -154 -25 -19 -27 -24 -15 -37 16 -17 76
-147 76 -163 0 -5 -10 -8 -22 -6 -16 2 -28 19 -47 65 -34 83 -53 103 -95 103
l-35 0 -3 -82 c-3 -75 -5 -83 -23 -83 -19 0 -20 8 -23 175 -1 96 0 180 2 187
8 20 123 17 166 -5z m200 -72 l5 -85 65 82 c36 45 73 85 82 88 34 12 39 -6 11
-39 -16 -19 -47 -56 -70 -83 l-41 -49 69 -92 c38 -50 69 -96 69 -102 0 -5 -9
-10 -20 -10 -13 0 -43 32 -92 98 l-73 97 -5 -95 c-5 -87 -7 -95 -25 -95 -19 0
-20 8 -23 175 -1 96 0 180 3 188 3 7 13 12 22 10 15 -3 19 -17 23 -88z m305
-100 c0 -178 -1 -185 -20 -185 -19 0 -20 8 -23 175 -1 96 0 180 3 188 3 7 13
12 22 10 16 -3 18 -20 18 -188z m167 98 l46 -93 43 90 c34 69 49 91 67 93 12
2 22 1 22 -2 0 -4 -24 -52 -52 -109 -47 -91 -53 -110 -58 -182 -4 -72 -7 -80
-25 -80 -18 0 -21 8 -25 85 -5 79 -9 92 -58 181 -28 53 -52 99 -52 102 0 4 10
7 23 7 18 0 31 -16 69 -92z m443 72 c0 -12 -17 -16 -77 -18 l-78 -3 0 -59 0
-60 65 0 c58 0 65 -2 65 -20 0 -18 -7 -20 -65 -20 l-65 0 0 -70 0 -70 80 0
c74 0 80 -2 80 -20 0 -20 -5 -21 -102 -18 l-103 3 -3 175 c-1 96 0 180 3 188
7 20 200 13 200 -8z"/>
<path d="M1485 2606 c-111 -49 -173 -231 -147 -432 24 -183 102 -274 235 -274
149 0 237 133 237 360 0 229 -88 361 -240 360 -30 -1 -68 -7 -85 -14z"/>
<path d="M2260 2444 l0 -156 88 4 c73 3 96 9 134 31 117 68 116 234 -1 267
-20 5 -78 10 -128 10 l-93 0 0 -156z"/>
<path d="M1710 1325 l0 -65 45 0 c53 0 85 25 85 68 0 41 -28 62 -83 62 l-47 0
0 -65z"/>
</g>
</svg>
